<?xml version="1.0" encoding="UTF-8" standalone="no"?>
<svg
   version="1.1"
   width="326.67307"
   height="357.74466"
   id="svg26"
   sodipodi:docname="ChatGPT Image Dec 30, 2025, 12_19_04 PM.svg"
   inkscape:version="1.4.2 (2aeb623e1d, 2025-05-12)"
   xmlns:inkscape="http://www.inkscape.org/namespaces/inkscape"
   xmlns:sodipodi="http://sodipodi.sourceforge.net/DTD/sodipodi-0.dtd"
   xmlns="http://www.w3.org/2000/svg"
   xmlns:svg="http://www.w3.org/2000/svg">
  <defs
     id="defs26" />
  <sodipodi:namedview
     id="namedview26"
     pagecolor="#ffffff"
     bordercolor="#000000"
     borderopacity="0.25"
     inkscape:showpageshadow="2"
     inkscape:pageopacity="0.0"
     inkscape:pagecheckerboard="0"
     inkscape:deskcolor="#d1d1d1"
     inkscape:zoom="0.78417969"
     inkscape:cx="168.32877"
     inkscape:cy="357.69863"
     inkscape:window-width="1920"
     inkscape:window-height="1011"
     inkscape:window-x="0"
     inkscape:window-y="32"
     inkscape:window-maximized="1"
     inkscape:current-layer="svg26" />
  <path
     id="path2"
     style="display:inline"
     d="m 212.37696,0.00416808 c -4.3833,0.010014 -8.76709,0.00855 -13.15039,0.00391 -7.37125,-0.007820002 -14.74205,-0.00587 -22.11329,0.00781 -8.53427,0.016511 -17.06728,0.022181 -25.60156,0.00586 -7.41689,-0.014349 -14.83505,-0.0210590022 -22.25195,-0.015625 -4.41939,0.00469 -8.83842,0.011584 -13.25781,0.00391 -4.19222,-0.009580002 -8.38396,-0.015472 -12.57618,-0.00195 -1.56258,0.0065 -3.12491,0.011546 -4.6875,0.015625 C 71.55548,-0.09789282 47.33021,7.3442299 27.39649,26.41238 9.2961,44.900845 0.14936,68.529278 0,94.396755 c 0.0119,1.969637 0.0229,3.940497 0.0195,5.910155 -0.0129,3.6897 -0.0147,7.37865 -0.002,11.06836 0.014,3.91833 0.0174,7.83556 0.0156,11.75391 -0.003,6.58988 0.002,13.17967 0.0195,19.76953 0.0213,7.6293 0.0333,15.25934 0.0273,22.88867 -0.006,7.43738 -0.005,14.87513 0.006,22.3125 0.005,3.14806 0.0109,6.2953 0.01,9.44336 -0.003,3.74816 -0.003,7.496 0.01,11.24414 0.006,1.39466 0.0112,2.78893 0.0156,4.18359 -0.03,15.41457 1.49804,29.55535 8.2207,43.58594 11.95423,24.00196 30.11297,39.69357 55.26563,48.53125 1.97752,0.68415 3.94599,1.38229 5.9082,2.10938 0.71971,0.27105 1.41864,0.53379 2.11719,0.79687 1.25454,0.472 2.50948,0.94502 3.76367,1.41797 0.0367,5.01404 0.0863,10.02739 0.16015,15.04102 0.0317,2.0488 0.0617,4.09763 0.0899,6.14648 0.0207,3.01611 0.0414,6.03107 0.0898,9.04688 0.017,0.97605 0.0342,1.92374 0.0508,2.87109 0.002,1.79334 0.0214,3.58603 0.0625,5.37891 0.28111,4.2453 1.31068,6.58154 4.54688,9.51562 3.33146,0.75349 4.6367,0.22031 7.55078,-1.54687 1.4351,-1.14483 2.87147,-2.28949 4.31641,-3.42188 0.5593,-0.43721 1.10167,-0.86082 1.64453,-1.28516 2.37231,-1.87851 4.76747,-3.71721 7.19531,-5.52343 7.16593,-5.32176 14.26064,-10.72544 21.29297,-16.22266 1.35328,-1.06362 2.70747,-2.1261 4.0625,-3.1875 2.22903,-1.67039 4.42329,-3.34207 6.47851,-5.22461 10.70281,-9.92258 19.20413,-12.31745 33.6543,-12.01172 2.06018,0.0458 4.12095,0.0703 6.18164,0.0723 5.45158,-0.021 10.90046,-0.003 16.35156,0.0742 5.60388,0.0809 11.20613,0.1155 16.81055,0.1289 6.4065,0.0113 12.81249,0.0106 19.21875,0.0723 1.01842,0.0115 2.00763,0.022 2.9961,0.0332 1.88856,0.0185 3.77746,0.0392 5.66601,0.0586 4.04118,0.063 8.0472,0.11022 12.07813,-0.22071 20.58325,-2.21982 43.15419,-12.1478 56.58398,-28.29883 l 1.91797,-2.49609 c 15.68155,-17.82293 22.15939,-39.86019 22.27148,-63.42187 -0.006,-1.93804 -0.0118,-3.87448 -0.008,-5.8125 0.012,-3.61822 0.0158,-7.23723 0.01,-10.85547 -0.007,-3.84612 -0.007,-7.69295 -0.004,-11.53907 0.005,-6.46497 0.005,-12.92956 -0.004,-19.39453 -0.011,-7.48961 -0.0148,-14.97912 -0.004,-22.46875 0.01,-6.50582 0.0138,-13.01175 0.01,-19.51758 -0.003,-3.87628 -0.007,-7.75262 -0.002,-11.6289 0.007,-3.67978 0.009,-7.35928 0,-11.03906 -0.005,-1.36996 -0.007,-2.739408 -0.01,-4.109378 0.0375,-11.596504 -0.6146,-22.923359 -4.16016,-34.044923 -0.24604,-0.716026 -0.48581,-1.410504 -0.72461,-2.105469 C 317.19544,49.079252 310.2326,37.694942 300.39649,27.412371 280.91804,8.3427819 256.33635,-0.09592732 229.24805,0.01393368 c -1.49941,0.00671 -3.00058,0.00782 -4.5,0.00391 -4.12391,-0.0171590022 -8.24715,-0.022438 -12.37109,-0.013672 z M 166.89453,38.890887 c 7.00021,0.142748 13.93448,1.287464 20.50196,3.521484 l 3.23437,1.066406 c 17.12465,6.090104 31.56905,17.645545 39.89454,34.029297 8.16062,17.829933 11.04667,37.958866 4.87109,56.904296 -3.87122,10.16376 -9.18594,18.39191 -17,26 l -1.52148,1.625 c -4.37322,4.59902 -9.04815,7.90389 -14.41602,11.25 -10.52962,6.81284 -17.93505,13.23521 -20.64063,25.8125 -0.35111,1.7656 -0.68351,3.53508 -0.99218,5.30859 -0.42969,2.00391 -0.42969,2.00391 -1.42969,3.00391 -4.93295,0.29158 -9.86785,0.31355 -14.8086,0.34961 -1.66355,0.0165 -3.32703,0.0438 -4.99023,0.082 -2.39662,0.0548 -4.7923,0.0771 -7.18945,0.0918 -1.1127,0.034 -1.11287,0.0337 -2.24805,0.0684 -3.80616,-0.0156 -5.41978,-0.26776 -8.23047,-2.92188 -4.08812,-7.12246 -1.79574,-17.67876 0.0293,-25.29492 5.23178,-17.50634 14.75463,-28.2802 29.76172,-37.98047 10.27401,-6.65599 18.66137,-13.19643 22.27734,-25.42969 1.54186,-7.60346 0.17036,-14.22448 -3.60156,-20.964839 -4.89715,-6.647939 -11.93155,-10.471992 -20,-12 -10.2497,-0.690101 -19.28284,-0.746971 -27.98438,5.402344 -6.36035,5.558509 -9.0544,13.671455 -11.14062,21.660155 -0.93107,3.12574 -1.26637,4.08329 -3.875,5.9375 -3.19873,0.40405 -3.19873,0.40405 -7.11719,0.43359 -1.04126,0.008 -1.04122,0.008 -2.10352,0.0156 -1.46758,0.006 -2.93476,0.005 -4.40234,-0.004 -2.23711,-0.008 -4.47213,0.021 -6.70898,0.0527 -1.42839,0.002 -2.85678,0.001 -4.28516,-0.002 -1.29535,0.002 -2.59118,0.004 -3.92578,0.006 -3.99474,-0.57962 -5.62792,-1.68237 -8.45703,-4.50195 -2.78107,-5.56213 -1.0538,-12.620928 0.5625,-18.312499 3.76683,-11.234407 9.59312,-20.853058 17.4375,-29.6875 l 1.79297,-2.078125 c 14.10585,-15.278785 35.70447,-23.871554 56.70507,-23.443309 z m -4,187.884763 c 3.29574,-0.0487 6.66975,0.42196 10.04493,1.29297 6.2237,2.79284 9.95223,7.7856 13.33203,13.53125 1.95332,6.61958 1.95332,13.00542 0,19.625 -3.87645,6.58997 -8.21954,12.14039 -15.875,14.1875 -7.87965,0.8929 -15.56682,1.12058 -22,-4 -6.49075,-5.82065 -9.34708,-11.86993 -10.4375,-20.4375 0.9545,-7.7724 3.83605,-13.6649 9.46094,-19.08984 4.70566,-3.50601 9.9817,-5.02828 15.4746,-5.10938 z" />
</svg>
