<?xml version="1.0" encoding="UTF-8" standalone="no"?>
<svg
   version="1.1"
   width="760.59076"
   height="535.18073"
   id="svg26"
   sodipodi:docname="ChatGPT Image Dec 30, 2025, 12_19_04 PM.svg"
   inkscape:version="1.4.2 (2aeb623e1d, 2025-05-12)"
   xmlns:inkscape="http://www.inkscape.org/namespaces/inkscape"
   xmlns:sodipodi="http://sodipodi.sourceforge.net/DTD/sodipodi-0.dtd"
   xmlns="http://www.w3.org/2000/svg"
   xmlns:svg="http://www.w3.org/2000/svg">
  <defs
     id="defs26" />
  <sodipodi:namedview
     id="namedview26"
     pagecolor="#ffffff"
     bordercolor="#000000"
     borderopacity="0.25"
     inkscape:showpageshadow="2"
     inkscape:pageopacity="0.0"
     inkscape:pagecheckerboard="0"
     inkscape:deskcolor="#d1d1d1"
     inkscape:zoom="0.78417969"
     inkscape:cx="388.94147"
     inkscape:cy="357.69863"
     inkscape:window-width="1920"
     inkscape:window-height="1011"
     inkscape:window-x="0"
     inkscape:window-y="32"
     inkscape:window-maximized="1"
     inkscape:current-layer="svg26" />
  <path
     id="path2"
     style="display:inline"
     d="m 433.20406,0.00416808 c -4.3833,0.010014 -8.76709,0.00855 -13.15039,0.00391 -7.37125,-0.007820001 -14.74205,-0.00587 -22.11329,0.00781 -8.53427,0.016511 -17.06728,0.022181 -25.60156,0.00586 -7.41689,-0.014349 -14.83505,-0.0210590012 -22.25195,-0.015625 -4.41939,0.00469 -8.83842,0.011584 -13.25781,0.00391 -4.19222,-0.009580001 -8.38396,-0.015472 -12.57618,-0.00195 -1.56258,0.0065 -3.12491,0.011546 -4.6875,0.015625 -27.1828,-0.1216009 -51.40807,7.32052182 -71.34179,26.38867192 -18.10039,18.488465 -27.24713,42.116898 -27.39649,67.984375 0.0119,1.969637 0.0229,3.940497 0.0195,5.910155 -0.0129,3.6897 -0.0147,7.37865 -0.002,11.06836 0.014,3.91833 0.0174,7.83556 0.0156,11.75391 -0.003,6.58988 0.002,13.17967 0.0195,19.76953 0.0213,7.6293 0.0333,15.25934 0.0273,22.88867 -0.006,7.43738 -0.005,14.87513 0.006,22.3125 0.005,3.14806 0.0109,6.2953 0.01,9.44336 -0.003,3.74816 -0.003,7.496 0.01,11.24414 0.006,1.39466 0.0112,2.78893 0.0156,4.18359 -0.03,15.41457 1.49804,29.55535 8.2207,43.58594 11.95423,24.00196 30.11297,39.69357 55.26563,48.53125 1.97752,0.68415 3.94599,1.38229 5.9082,2.10938 0.71971,0.27105 1.41864,0.53379 2.11719,0.79687 1.25454,0.472 2.50948,0.94502 3.76367,1.41797 0.0367,5.01404 0.0863,10.02739 0.16015,15.04102 0.0317,2.0488 0.0617,4.09763 0.0899,6.14648 0.0207,3.01611 0.0414,6.03107 0.0898,9.04688 0.017,0.97605 0.0342,1.92374 0.0508,2.87109 0.002,1.79334 0.0214,3.58603 0.0625,5.37891 0.28111,4.2453 1.31068,6.58154 4.54688,9.51562 3.33146,0.75349 4.6367,0.22031 7.55078,-1.54687 1.4351,-1.14483 2.87147,-2.28949 4.31641,-3.42188 0.5593,-0.43721 1.10167,-0.86082 1.64453,-1.28516 2.37231,-1.87851 4.76747,-3.71721 7.19531,-5.52343 7.16593,-5.32176 14.26064,-10.72544 21.29297,-16.22266 1.35328,-1.06362 2.70747,-2.1261 4.0625,-3.1875 2.22903,-1.67039 4.42329,-3.34207 6.47851,-5.22461 10.70281,-9.92258 19.20413,-12.31745 33.6543,-12.01172 2.06018,0.0458 4.12095,0.0703 6.18164,0.0723 5.45158,-0.021 10.90046,-0.003 16.35156,0.0742 5.60388,0.0809 11.20613,0.1155 16.81055,0.1289 6.4065,0.0113 12.81249,0.0106 19.21875,0.0723 1.01842,0.0115 2.00763,0.022 2.9961,0.0332 1.88856,0.0185 3.77746,0.0392 5.66601,0.0586 4.04118,0.063 8.0472,0.11022 12.07813,-0.22071 20.58325,-2.21982 43.15419,-12.1478 56.58398,-28.29883 l 1.91797,-2.49609 c 15.68155,-17.82293 22.15939,-39.86019 22.27148,-63.42187 -0.006,-1.93804 -0.0118,-3.87448 -0.008,-5.8125 0.012,-3.61822 0.0158,-7.23723 0.01,-10.85547 -0.007,-3.84612 -0.007,-7.69295 -0.004,-11.53907 0.005,-6.46497 0.005,-12.92956 -0.004,-19.39453 -0.011,-7.48961 -0.0148,-14.97912 -0.004,-22.46875 0.01,-6.50582 0.0138,-13.01175 0.01,-19.51758 -0.003,-3.87628 -0.007,-7.75262 -0.002,-11.6289 0.007,-3.67978 0.009,-7.35928 0,-11.03906 -0.005,-1.36996 -0.007,-2.739408 -0.01,-4.109378 0.0375,-11.596504 -0.6146,-22.923359 -4.16016,-34.044923 -0.24604,-0.716026 -0.48581,-1.410504 -0.72461,-2.105469 C 538.02254,49.079252 531.0597,37.694942 521.22359,27.412371 501.74514,8.3427819 477.16345,-0.09592732 450.07515,0.01393368 c -1.49941,0.00671 -3.00058,0.00782 -4.5,0.00391 -4.12391,-0.0171590012 -8.24715,-0.022438 -12.37109,-0.013672 z M 387.72163,38.890887 c 7.00021,0.142748 13.93448,1.287464 20.50196,3.521484 l 3.23437,1.066406 c 17.12465,6.090104 31.56905,17.645545 39.89454,34.029297 8.16062,17.829933 11.04667,37.958866 4.87109,56.904296 -3.87122,10.16376 -9.18594,18.39191 -17,26 l -1.52148,1.625 c -4.37322,4.59902 -9.04815,7.90389 -14.41602,11.25 -10.52962,6.81284 -17.93505,13.23521 -20.64063,25.8125 -0.35111,1.7656 -0.68351,3.53508 -0.99218,5.30859 -0.42969,2.00391 -0.42969,2.00391 -1.42969,3.00391 -4.93295,0.29158 -9.86785,0.31355 -14.8086,0.34961 -1.66355,0.0165 -3.32703,0.0438 -4.99023,0.082 -2.39662,0.0548 -4.7923,0.0771 -7.18945,0.0918 -1.1127,0.034 -1.11287,0.0337 -2.24805,0.0684 -3.80616,-0.0156 -5.41978,-0.26776 -8.23047,-2.92188 -4.08812,-7.12246 -1.79574,-17.67876 0.0293,-25.29492 5.23178,-17.50634 14.75463,-28.2802 29.76172,-37.98047 10.27401,-6.65599 18.66137,-13.19643 22.27734,-25.42969 1.54186,-7.60346 0.17036,-14.22448 -3.60156,-20.964839 -4.89715,-6.647939 -11.93155,-10.471992 -20,-12 -10.2497,-0.690101 -19.28284,-0.746971 -27.98438,5.402344 -6.36035,5.558509 -9.0544,13.671455 -11.14062,21.660155 -0.93107,3.12574 -1.26637,4.08329 -3.875,5.9375 -3.19873,0.40405 -3.19873,0.40405 -7.11719,0.43359 -1.04126,0.008 -1.04122,0.008 -2.10352,0.0156 -1.46758,0.006 -2.93476,0.005 -4.40234,-0.004 -2.23711,-0.008 -4.47213,0.021 -6.70898,0.0527 -1.42839,0.002 -2.85678,0.001 -4.28516,-0.002 -1.29535,0.002 -2.59118,0.004 -3.92578,0.006 -3.99474,-0.57962 -5.62792,-1.68237 -8.45703,-4.50195 -2.78107,-5.56213 -1.0538,-12.620928 0.5625,-18.312499 3.76683,-11.234407 9.59312,-20.853058 17.4375,-29.6875 l 1.79297,-2.078125 c 14.10585,-15.278785 35.70447,-23.871554 56.70507,-23.443309 z m -4,187.884763 c 3.29574,-0.0487 6.66975,0.42196 10.04493,1.29297 6.2237,2.79284 9.95223,7.7856 13.33203,13.53125 1.95332,6.61958 1.95332,13.00542 0,19.625 -3.87645,6.58997 -8.21954,12.14039 -15.875,14.1875 -7.87965,0.8929 -15.56682,1.12058 -22,-4 -6.49075,-5.82065 -9.34708,-11.86993 -10.4375,-20.4375 0.9545,-7.7724 3.83605,-13.6649 9.46094,-19.08984 4.70566,-3.50601 9.9817,-5.02828 15.4746,-5.10938 z" />
  <path
     id="path3"
     style="display:inline"
     d="m 352.91499,387.90846 -2.88476,0.0176 c -5.04997,-0.0173 -8.30981,1.89378 -9.31055,7.10938 -0.002,1.03308 -0.002,2.03636 -0.004,3.03906 l -0.0352,3.49609 c 0.0124,1.93864 0.0254,3.87775 0.0176,5.81641 -0.0231,3.57632 -0.0311,7.15213 -0.0195,10.72851 0.0132,3.80299 0.0121,7.6052 0.006,11.40821 -0.0105,6.36615 -0.008,12.73347 0.01,19.09961 0.022,7.41698 0.0296,14.833 0.008,22.25 -0.019,6.41507 -0.0288,12.82903 -0.0215,19.24414 0.006,3.81916 0.016,7.63981 0.006,11.45898 -0.0127,3.65096 -0.0202,7.30022 -0.002,10.95117 0.009,1.34368 0.0161,2.68755 0.0215,4.03125 -0.008,1.30228 -0.0173,2.5661 -0.0254,3.83008 l 0.0352,3.48828 c 0.005,3.03735 0.004,3.03761 0.50781,5.53516 2.26363,2.20792 3.46368,2.9239 6.60547,3.36719 1.01548,-0.004 2.00071,-0.006 2.98632,-0.01 1.1555,0.003 2.27693,0.005 3.39844,0.008 1.24393,-0.0127 2.45087,-0.0248 3.65821,-0.0371 3.22165,-0.005 6.44247,-0.006 9.66406,-0.0293 3.36697,-0.0284 6.73446,-0.0526 10.10156,-0.0586 2.63083,-0.004 5.26176,-0.0105 7.89258,-0.0195 1.28499,-0.006 2.5321,-0.0116 3.7793,-0.0176 1.84139,-0.007 1.84155,-0.008 3.64648,-0.0137 1.16199,-0.01 2.29015,-0.0193 3.41797,-0.0293 10.75738,-0.0744 22.40209,-2.76361 31.86523,-7.98047 0.67469,-0.4011 1.32953,-0.79039 1.98438,-1.17969 4.74803,-2.7152 9.26384,-5.53986 13.45703,-9.06641 14.29275,-13.61098 21.30555,-32.10646 21.89649,-51.63867 0.19171,-20.95311 -5.95261,-38.60025 -20.66212,-53.6582 -19.41475,-18.48285 -43.03789,-20.92645 -68.58789,-21.00781 -3.42162,4.9e-4 -6.84222,-0.005 -10.26367,-0.041 -2.26699,-0.0247 -4.53366,-0.0408 -6.80078,-0.0469 l -3.23828,-0.002 z m 21.3086,31.50391 c 35.48262,0 35.48262,0 47,11 9.20116,9.87892 11.52437,21.65413 11.27344,34.78906 -0.47241,10.29468 -4.292,19.62994 -11.27344,27.21094 -14.10812,12.35629 -28.2974,11 -47,11 z" />
  <path
     id="path5"
     style="display:inline"
     d="m 163.04976,424.59596 c -16.56295,0.63312 -32.86811,8.5317 -42.82617,21.81641 -9.81586,13.642 -12.05527,29.36222 -9.58203,45.77344 4.1419,15.84486 12.51053,28.20522 26.60156,36.64844 14.02877,7.42806 31.95732,8.00332 47.10547,3.45312 12.57891,-4.3671 22.89748,-13.5868 28.8125,-25.51953 l 1.0625,-2.35547 1.1875,-2.38672 c 5.78379,-13.75659 4.70723,-31.93598 -0.78516,-45.62891 l -1.40234,-2.98437 c -4.902,-10.63606 -14.47715,-19.17997 -25.0625,-23.85156 l -2.9375,-1.14844 c -7.063,-2.89142 -14.64522,-4.10419 -22.17383,-3.81641 z m 2.78125,28.27539 c 2.49535,0.0773 5.11437,0.4719 7.87695,1.15821 6.1146,2.6781 9.76764,7.66256 12.55078,13.58593 3.55552,9.45933 2.19432,18.6039 -1.16015,27.92188 -3.39764,5.20971 -7.61206,8.94558 -13.375,11.3125 -7.85954,1.26314 -13.48171,0.96097 -20.35156,-3.69141 -5.5499,-4.33364 -8.82182,-9.81818 -10.14844,-16.74609 -0.76151,-9.24686 -0.76282,-17.29224 5,-25 5.75325,-6.15136 12.12138,-8.77294 19.60742,-8.54102 z" />
  <path
     id="path6"
     style="display:inline"
     d="m 519.17476,423.69948 c -13.10772,0.65019 -25.96327,5.21796 -35.16602,13.77148 -3.17884,3.43888 -5.61774,6.07123 -5.78515,10.94141 4.08264,5.47934 4.08264,5.47934 20,15 4.34766,-4.70997 8.6612,-9.79644 14.6289,-12.41406 7.74575,-1.91411 15.4769,-1.69627 22.3711,2.41406 2.14557,2.45208 2.90251,4.52502 3.56054,7.69922 l 0.51758,2.98828 c 0.31055,1.77027 0.61885,3.54093 0.92188,5.3125 -4.20506,-0.0621 -8.40984,-0.11374 -12.61524,-0.14648 -1.73243,-0.0123 -3.46485,-0.0259 -5.19726,-0.041 -5.69998,-0.0868 -11.39562,-0.17807 -17.09375,0.0371 -9.57684,0.69146 -19.49191,4.77843 -25.96875,12.02539 l -2.125,3.125 c -1.96468,2.58714 -3.14843,4.84687 -4,8 -1.01273,9.75838 -0.85754,19.04647 4.625,27.5 5.48718,7.86716 12.99507,12.50306 22.375,14.5 14.00209,1.27008 26.42339,-0.90326 37.60156,-9.82813 l 1.39844,-1.17187 c 0.37475,2.69821 0.86267,4.75539 2.20312,7.14062 1.79688,1.85914 1.79688,1.85962 4.29297,2.36133 1.00008,-0.002 1.97074,-0.004 2.94141,-0.006 1.09172,7e-4 2.15133,10e-4 3.21094,0.002 1.13953,-0.0206 2.24554,-0.0406 3.35156,-0.0605 4.38276,0.0281 9.86369,1.01202 13.63281,-1.54492 1.36627,-1.8917 1.36688,-1.89324 1.73437,-4.8711 -0.006,-1.8651 -0.004,-1.86518 -0.01,-3.69336 0.006,-2.14241 0.007,-4.2834 -0.01,-6.42578 -0.0131,-1.53537 -0.0204,-3.07004 -0.0234,-4.60547 -0.002,-3.20418 -0.007,-6.40914 -0.0254,-9.61328 -0.0284,-4.16297 -0.0531,-8.3252 -0.0586,-12.48828 -0.004,-3.24706 -0.009,-6.49514 -0.0195,-9.74219 -0.006,-1.55365 -0.0118,-3.1065 -0.0176,-4.66015 -0.006,-2.2256 -0.0128,-4.45022 -0.0273,-6.67578 -0.008,-1.03878 -0.006,-1.04039 -0.0137,-2.0586 -0.0132,-2.35368 -0.0638,-4.70692 -0.16211,-7.05859 -1.46021,-10.37448 -6.28286,-19.22473 -14.3711,-25.98047 -10.21013,-7.11524 -23.57001,-10.38262 -36.67773,-9.73242 z m 1.22461,64.51758 3.50586,0.0195 3.63086,0.0508 3.68945,0.0273 c 2.99955,0.0235 5.9987,0.0564 8.99805,0.0977 0.11409,6.48329 0.12129,11.48235 -4.47657,16.66406 -5.90448,5.47311 -12.34851,7.98344 -20.41406,7.69141 -4.25888,-0.7177 -6.88215,-3.25097 -9.98437,-6.04297 -1.80723,-3.71485 -1.89618,-7.27644 -1.125,-11.3125 4.34331,-5.83245 9.12419,-7.26479 16.17578,-7.19531 z" />
  <path
     id="path7"
     style="display:inline"
     d="m 711.36421,425.09987 -3.01562,0.0625 c -12.90146,0.0653 -23.45816,2.76819 -33.5,11.5625 -11.92029,11.59185 -18.28118,24.61526 -18.95899,41.32617 -0.30805,15.57325 4.31782,30.15756 15.08399,41.67383 10.56137,9.76927 21.7768,14.78784 36.11719,15.09961 l 3.19531,0.0254 c 1.03552,0.0105 2.03985,0.021 3.04492,0.0312 15.8529,-0.18514 28.10161,-6.21308 39.3457,-17.25781 1.84803,-2.64137 1.95657,-4.05201 1.54688,-7.21094 -1.14893,-1.14893 -1.14893,-1.14893 -6.12696,-3.83398 l -2.06054,-1.10352 c -4.52469,-2.46761 -8.84367,-4.58653 -13.8125,-6.0625 -1.47108,1.89969 -1.47108,1.89969 -4,4 -7.34335,4.97544 -14.2307,6.09185 -23,5 -5.80097,-1.95322 -9.6532,-4.55119 -12.61133,-9.92969 l -1.58008,-3.26562 c -0.94196,-1.9321 -1.87997,-3.86615 -2.80859,-5.80469 8.12692,0.0631 16.25375,0.11434 24.38086,0.14648 4.14249,0.0151 8.28532,0.0279 12.42773,0.0586 4.059,0.0332 8.11666,0.0628 12.17578,0.0742 1.54272,0.003 3.0862,0.008 4.62891,0.0137 2.22398,0.0235 4.44776,0.0467 6.67187,0.0488 0.69385,-4.3e-4 1.36759,-0.002 2.04102,-0.002 3.42074,0.0187 5.73047,0.3102 8.56836,-1.64648 1.4642,-2.24337 1.46486,-2.24366 1.47266,-7.13867 l -0.0547,-2.11719 c -0.25325,-15.19332 -4.64134,-27.51118 -14.3125,-39.4375 -9.71576,-9.49985 -21.34572,-14.38307 -34.85938,-14.3125 z m -2.05273,23.9082 c 3.14449,0.0161 6.28095,0.53172 9.34961,1.5918 5.56407,3.93557 9.27368,8.3808 11.5625,14.8125 v 4 h -42 c 2.14357,-9.64606 4.07376,-13.33396 11.6875,-19 3.10336,-0.93686 6.25589,-1.42037 9.40039,-1.4043 z" />
  <path
     d="m 12.868119,388.04128 c 1.041482,2.4e-4 1.041482,2.4e-4 2.104004,4.9e-4 2.11199,-0.004 4.221876,-0.0407 6.333496,-0.0786 1.345045,-0.006 2.6901,-0.01 4.035156,-0.0117 1.223159,-0.008 2.446319,-0.0164 3.706543,-0.0249 3.852329,0.58925 4.847588,1.4147 7.17627,4.48584 1.126852,1.88327 2.179164,3.81224 3.171875,5.76953 0.578144,1.12914 1.156289,2.25828 1.751953,3.42164 0.608804,1.20707 1.217527,2.41418 1.826172,3.62133 0.628693,1.23295 1.258254,2.46545 1.888672,3.69751 0.935106,1.82767 1.869751,3.65554 2.801513,5.48491 2.298496,4.51124 4.65423,8.98775 7.059815,13.44258 3.290709,6.12753 6.431543,12.32098 9.5,18.5625 3.041172,-2.60721 4.473205,-5.61826 6.222656,-9.1875 0.301897,-0.61082 0.603795,-1.22164 0.914841,-1.85096 0.645725,-1.30763 1.288822,-2.61656 1.929519,-3.92666 1.669397,-3.41243 3.35878,-6.81495 5.046267,-10.21847 0.33337,-0.67357 0.66674,-1.34714 1.01022,-2.04112 2.80189,-5.65157 5.68081,-11.2597 8.6265,-16.83779 0.39324,-0.74701 0.78649,-1.49402 1.19165,-2.26367 5.51731,-10.40331 5.51731,-10.40331 8.05835,-11.67383 4.264669,-0.23426 8.533129,-0.22837 12.803459,-0.24023 2.12255,-0.01 4.24414,-0.0407 6.36646,-0.0723 1.3483,-0.007 2.69661,-0.0118 4.04492,-0.0156 1.8426,-0.014 1.8426,-0.014 3.72241,-0.0283 3.06275,0.35644 3.06275,0.35644 5.04932,1.56445 1.01343,1.79199 1.01343,1.79199 0.89942,4.09863 -1.04253,3.16924 -2.43523,5.87194 -4.06177,8.78711 -0.32105,0.57947 -0.6421,1.15893 -0.97287,1.75595 -1.04798,1.88722 -2.10568,3.76878 -3.16385,5.6503 -0.73329,1.31501 -1.46612,2.63028 -2.19849,3.9458 -5.1157,9.17303 -10.30321,18.30516 -15.5398,27.40967 -3.84752,6.69436 -7.630499,13.42527 -11.410879,20.15772 -0.50507,0.8967 -1.01015,1.79341 -1.53052,2.71728 -0.43683,0.77755 -0.87366,1.55509 -1.32373,2.3562 -1.68408,2.91333 -1.68408,2.91333 -3.183,5.06195 -4.41319,6.59431 -5.34446,11.55634 -5.2003,19.40607 -0.007,1.06397 -0.0132,2.12794 -0.02,3.22415 -0.0174,3.36604 0.004,6.73021 0.0317,10.09616 0.0113,3.387 0.014,6.77345 -4.5e-4,10.16043 -0.007,2.09903 8.1e-4,4.19818 0.0264,6.29706 -4.2e-4,0.94844 -8.5e-4,1.89688 -0.001,2.87406 0.007,0.83143 0.014,1.66287 0.0212,2.5195 -0.44743,2.83925 -1.3866,4.20718 -3.35835,6.27395 -2.771482,0.50171 -2.771482,0.50171 -6.093747,0.4961 -1.194961,6.4e-4 -2.389922,0.001 -3.621094,0.002 -1.249102,-0.02 -2.498203,-0.04 -3.785156,-0.0605 -1.249102,0.007 -2.498203,0.0142 -3.785157,0.0215 -9.190392,-0.0644 -9.190392,-0.0644 -11.375915,-1.7086 -1.712988,-2.23939 -1.655165,-3.36697 -1.533264,-6.16054 0.02796,-0.8946 0.05591,-1.7892 0.08472,-2.71091 0.04133,-0.97067 0.08266,-1.94135 0.125244,-2.94144 0.04869,-2.08468 0.09177,-4.16949 0.129883,-6.25439 0.02018,-1.09202 0.04036,-2.18404 0.06116,-3.30914 0.27622,-21.5059 -1.296862,-35.87637 -14.200806,-53.54291 -3.2292,-4.55767 -5.830713,-9.43536 -8.505859,-14.33106 -1.048006,-1.85573 -2.09882,-3.70989 -3.152344,-5.5625 -4.487149,-7.9388 -8.905215,-15.91593 -13.3242205,-23.89268 -0.895254,-1.61552 -0.895254,-1.61552 -1.808594,-3.26368 -0.557519,-1.00845 -1.115039,-2.0169 -1.689453,-3.0559 -1.280381,-2.2876 -2.597363,-4.54567 -3.935547,-6.79957 -1.791447,-3.29679 -2.105712,-5.22872 -1.589843,-8.92578 3.378834,-3.37883 8.081894,-2.33769 12.6445305,-2.37109 z"
     fill="#fd00c1"
     id="path8"
     style="display:inline;fill:#000000" />
  <path
     d="m 239.62593,427.01393 c 1.0551,-0.004 2.11019,-0.008 3.19726,-0.0117 1.10151,0.0116 2.20301,0.0232 3.33789,0.0352 1.09764,-0.0116 2.19528,-0.0232 3.32618,-0.0352 1.05638,0.004 2.11277,0.008 3.20117,0.0117 1.44814,0.005 1.44814,0.005 2.92553,0.0103 3.1496,0.46851 4.35211,1.15181 6.60962,3.38819 0.50553,2.70538 0.50553,2.70538 0.51416,6.01269 0.0199,1.85773 0.0199,1.85773 0.0402,3.75299 -0.005,1.35415 -0.0101,2.7083 -0.0153,4.06244 0.01,1.39144 0.0219,2.78286 0.0357,4.17426 0.0324,3.66672 0.0427,7.33315 0.0468,11 0.009,5.85442 0.0445,11.7086 0.0922,17.56283 0.0125,2.03786 0.0118,4.07542 0.01,6.11331 -0.17547,10.88081 -0.17547,10.88081 4.71396,20.19648 4.10155,3.40128 7.36085,3.46609 12.5625,3.125 6.06097,-1.35711 9.52889,-3.69124 13,-9 2.63627,-6.73951 2.29651,-13.54746 2.3086,-20.70313 0.0187,-2.00845 0.0374,-4.0169 0.0572,-6.02534 0.0453,-4.93156 0.0691,-9.86326 0.0905,-14.79497 0.0128,-2.77753 0.0335,-5.5548 0.0623,-8.33221 0.0263,-2.61193 0.0401,-5.22401 0.0404,-7.83606 0.0133,-1.17843 0.0267,-2.35685 0.0404,-3.57099 0.005,-1.03812 0.0101,-2.07624 0.0154,-3.14581 0.38528,-2.59149 0.38528,-2.59149 1.75531,-4.42581 2.35391,-1.68341 4.16097,-1.55404 7.03232,-1.56412 1.58264,-0.006 1.58264,-0.006 3.19726,-0.0117 1.10151,0.0116 2.20301,0.0232 3.33789,0.0352 1.64646,-0.0174 1.64646,-0.0174 3.32618,-0.0352 1.05638,0.004 2.11277,0.008 3.20117,0.0117 0.96542,0.003 1.93085,0.007 2.92553,0.0103 3.27873,0.48772 4.36746,0.91345 6.60962,3.38819 0.61946,3.11677 0.53537,6.21253 0.50171,9.38086 0.008,1.44183 0.008,1.44183 0.0164,2.91279 0.0125,3.18368 -0.004,6.36646 -0.022,9.5501 1.6e-4,2.20813 0.002,4.41626 0.004,6.62439 10e-4,4.63037 -0.0112,9.26043 -0.034,13.89074 -0.0284,5.94222 -0.0256,11.88392 -0.0129,17.82617 0.007,4.56041 -8.2e-4,9.12071 -0.0133,13.68111 -0.005,2.19131 -0.005,4.38264 -9.3e-4,6.57395 0.003,3.05994 -0.0135,6.11917 -0.0354,9.17903 0.005,0.91022 0.009,1.82045 0.0136,2.75825 -0.01,0.83279 -0.0198,1.66558 -0.03,2.52361 -0.002,0.7234 -0.005,1.44679 -0.007,2.19211 -0.49463,2.48003 -1.40179,3.37473 -3.38032,4.90689 -2.58789,0.38818 -2.58789,0.38818 -5.65625,0.39844 -1.10473,0.004 -2.20945,0.008 -3.34766,0.0117 -1.15371,-0.0116 -2.30742,-0.0232 -3.49609,-0.0352 -1.15371,0.0116 -2.30742,0.0232 -3.49609,0.0352 -1.10473,-0.004 -2.20946,-0.008 -3.34766,-0.0117 -1.01256,-0.003 -2.02512,-0.007 -3.06836,-0.0103 -2.58789,-0.38818 -2.58789,-0.38818 -4.39844,-1.71387 -1.71405,-2.41276 -1.86752,-4.77695 -2.18945,-7.67431 -0.4009,0.38672 -0.8018,0.77343 -1.21484,1.17187 -9.39347,8.60545 -19.13392,10.33466 -31.51558,10.09379 -9.33119,-0.41571 -15.42164,-4.46908 -22.07031,-10.83594 -7.06433,-7.80464 -9.43674,-16.70453 -9.47387,-27.08325 -0.008,-1.07717 -0.008,-1.07717 -0.0155,-2.1761 -0.0138,-2.34463 -0.013,-4.68895 -0.0106,-7.03361 -0.004,-1.64048 -0.008,-3.28096 -0.013,-4.92144 -0.007,-3.42344 -0.007,-6.84677 -0.002,-10.27021 0.006,-4.38949 -0.0112,-8.77856 -0.0344,-13.16797 -0.0147,-3.38086 -0.0156,-6.76162 -0.0125,-10.14251 -5.1e-4,-1.61915 -0.006,-3.23831 -0.0158,-4.85743 -0.0123,-2.25714 -0.006,-4.51345 0.006,-6.77057 -6.3e-4,-1.28381 -0.001,-2.56762 -0.002,-3.89034 0.37422,-3.11625 0.37422,-3.11625 1.74248,-5.0299 2.36526,-1.5747 4.21132,-1.47489 7.03409,-1.48479 z"
     fill="#fd00c1"
     id="path9"
     style="display:inline;fill:#000000" />
  <path
     d="m 653.22359,427.41237 c 2.65043,2.65044 1.2349,10.30833 1.25,13.875 0.0206,1.21043 0.0412,2.42086 0.0625,3.66797 0.008,1.7383 0.008,1.7383 0.0156,3.51172 0.009,1.06718 0.0187,2.13436 0.0283,3.23388 -0.35644,2.71143 -0.35644,2.71143 -1.63012,4.57349 -3.52223,2.32175 -8.67457,1.18063 -12.77124,0.93286 -5.88926,-0.20138 -10.05149,0.86657 -14.95508,4.20508 -2.07747,1.8883 -2.07747,1.8883 -3.4375,4 -0.47309,0.66 -0.94617,1.32 -1.4336,2 -2.12194,3.75929 -2.25826,7.28292 -2.28662,11.54712 -0.0154,1.66676 -0.0154,1.66676 -0.0311,3.3672 -0.007,1.19488 -0.0146,2.38975 -0.0221,3.62084 -0.0281,2.52539 -0.0567,5.05078 -0.0859,7.57617 -0.0414,3.98541 -0.0793,7.97075 -0.10449,11.9563 -0.0275,3.8436 -0.0734,7.68664 -0.12207,11.53003 -0.003,1.1969 -0.006,2.39379 -0.01,3.62696 -0.0166,1.10803 -0.0331,2.21605 -0.0502,3.35765 -0.008,0.97611 -0.0162,1.95222 -0.0245,2.95791 -0.39194,2.45982 -0.39194,2.45982 -1.75049,4.27417 -2.46658,1.78166 -4.50548,1.57443 -7.51645,1.58409 -1.14985,0.004 -2.29969,0.008 -3.48438,0.0117 -1.2014,-0.0116 -2.40281,-0.0232 -3.64062,-0.0352 -1.20141,0.0116 -2.40282,0.0232 -3.64063,0.0352 -1.72476,-0.006 -1.72476,-0.006 -3.48437,-0.0117 -1.05446,-0.003 -2.10891,-0.007 -3.19531,-0.0103 -3.10861,-0.45027 -3.78018,-0.96652 -5.67969,-3.38814 -0.37753,-1.88847 -0.37753,-1.88847 -0.38095,-4.05431 -0.009,-0.82293 -0.0169,-1.64586 -0.0256,-2.49373 0.006,-0.8993 0.0122,-1.7986 0.0184,-2.72515 -0.005,-0.94987 -0.0105,-1.89973 -0.0159,-2.87838 -0.0132,-3.14626 -0.005,-6.29201 0.006,-9.43827 -0.002,-2.18332 -0.005,-4.36663 -0.009,-6.54995 -0.004,-4.57904 0.002,-9.1579 0.016,-13.73692 0.0171,-5.8726 0.007,-11.74478 -0.0107,-17.61736 -0.0108,-4.50983 -0.007,-9.01957 3.8e-4,-13.5294 0.002,-2.16537 -4.6e-4,-4.33075 -0.007,-6.49611 -0.008,-3.02618 0.004,-6.0517 0.0207,-9.07783 -0.006,-0.89728 -0.0122,-1.79456 -0.0184,-2.71903 0.0619,-6.03751 0.0619,-6.03751 1.7701,-9.23887 2.37887,-2.10007 4.11949,-1.96187 7.25758,-1.97594 1.10022,-0.005 2.20043,-0.0103 3.33398,-0.0156 1.1492,0.0155 2.2984,0.0309 3.48243,0.0469 1.14533,-0.0155 2.29066,-0.0309 3.4707,-0.0469 1.1015,0.005 2.20301,0.0103 3.33789,0.0156 1.00732,0.005 2.01464,0.009 3.05249,0.0137 3.42541,0.6563 4.59978,1.77587 6.70137,4.51758 0.75,3.75 0.75,3.75 1,7 0.51047,-0.51949 1.02094,-1.03899 1.54687,-1.57422 8.74318,-8.38663 21.48562,-15.78352 33.45313,-9.42578 z"
     fill="#fc00c0"
     id="path10"
     style="display:inline;fill:#000000" />
</svg>
